REM MD5 2098ef01b31afcf91bd483b111facb47
FILE "m [emu] - Kimi o Tsutaete (Japan).bin" BINARY
  TRACK 01 MODE2/2352
    INDEX 01 00:00:00
  TRACK 02 AUDIO
    INDEX 00 17:55:59
    INDEX 01 17:57:59
  TRACK 03 AUDIO
    INDEX 00 19:09:55
    INDEX 01 19:11:55
  TRACK 04 AUDIO
    INDEX 00 20:45:02
    INDEX 01 20:47:02
  TRACK 05 AUDIO
    INDEX 00 23:56:61
    INDEX 01 23:58:61
REM LEADOUT 27:56:44
